<?xml version="1.0" encoding="UTF-8" standalone="no"?>
<svg width="41px" height="41px" viewBox="0 0 41 41" version="1.1" xmlns="http://www.w3.org/2000/svg" xmlns:xlink="http://www.w3.org/1999/xlink">
    <!-- Generator: Sketch 45.1 (43504) - http://www.bohemiancoding.com/sketch -->
    <title>chat</title>
    <desc>Created with Sketch.</desc>
    <defs></defs>
    <g id="Symbols" stroke="none" stroke-width="1" fill="none" fill-rule="evenodd">
        <g id="Menu" transform="translate(-39.000000, -13.000000)" fill-rule="nonzero" fill="#FFFFFF">
            <g id="chat" transform="translate(39.000000, 13.000000)">
                <path d="M34.878178,5.99085831 C31.0183536,2.13103389 25.8918905,0 20.4316511,0 C14.9714117,0 9.84494863,2.12247552 5.98512421,5.98229994 C-1.46065684,13.428081 -1.99983409,25.3242139 4.6329019,33.3861975 C3.71715642,35.2604804 2.63024355,36.5100022 1.41495515,37.1090881 C0.670377045,37.4770979 0.251016963,38.2815846 0.37083413,39.103188 C0.499209665,39.9333498 1.13252897,40.5752275 1.96269077,40.703603 C2.41628432,40.77207 2.90411136,40.8148618 3.40905513,40.8148618 L3.40905513,40.8148618 C5.91665725,40.8148618 8.55263491,39.9504666 10.7521357,38.4356353 C13.7133314,40.0274919 17.042537,40.8662121 20.4316511,40.8662121 C25.8918905,40.8662121 31.0183536,38.7437365 34.878178,34.8839121 C38.7380024,31.0240877 40.860478,25.8890663 40.860478,20.4373852 C40.860478,14.9857042 38.7380024,9.85068274 34.878178,5.99085831 Z M33.2435295,33.2492636 C29.8201819,36.6726112 25.2671296,38.5554524 20.4316511,38.5554524 C17.1965876,38.5554524 14.0214327,37.6910572 11.2570795,36.064967 C11.0773538,35.9622666 10.8719529,35.902358 10.6751104,35.902358 C10.4269177,35.902358 10.1701667,35.9879417 9.9647658,36.1419924 C7.34590488,38.1703258 4.70992722,38.4698687 3.5545474,38.4955438 C4.93244482,37.4685396 6.08782463,35.8766829 7.05492033,33.6600653 C7.23464608,33.2492636 7.15762076,32.769995 6.85807785,32.4276602 C0.524884772,25.2728637 0.858661164,14.3695016 7.61977269,7.60839006 C11.0431203,4.18504245 15.5961726,2.30220127 20.4316511,2.30220127 C25.275688,2.30220127 29.8201819,4.18504245 33.2435295,7.60839006 C40.3127423,14.6861612 40.3127423,26.1886092 33.2435295,33.2492636 Z" id="Shape"></path>
                <path d="M25.6180227,11.0745295 C23.769415,11.0745295 22.0320661,11.7934325 20.7226357,13.102863 L20.4316511,13.3938475 L20.1406666,13.102863 C18.8312361,11.7934325 17.0938872,11.0745295 15.2452795,11.0745295 C13.4052301,11.0745295 11.6678812,11.7934325 10.3670091,13.0943046 C9.05757868,14.4037351 8.33867569,16.141084 8.34723405,17.9811333 C8.34723405,19.829741 9.07469542,21.5585316 10.3755675,22.867962 L19.6100477,32.1024422 C19.8325653,32.3249598 20.1321082,32.4447769 20.4230927,32.4447769 C20.7140773,32.4447769 21.0136202,32.3335182 21.2361378,32.1110006 L30.4962931,22.8850788 C31.8057235,21.5756483 32.5246265,19.8382994 32.5246265,17.99825 C32.5246265,16.1496423 31.8057235,14.4122934 30.5048514,13.102863 C29.195421,11.7934325 27.4580721,11.0745295 25.6180227,11.0745295 Z M28.8616446,21.2504303 L20.4230927,29.6547486 L12.0016576,21.2333135 C11.128704,20.3603599 10.6494353,19.2049801 10.6494353,17.9725749 C10.6494353,16.7401698 11.128704,15.58479 11.9930993,14.7203947 C12.8574945,13.8559994 14.0128743,13.3767308 15.2452795,13.3767308 C16.4776846,13.3767308 17.6330644,13.8559994 18.5060181,14.7289531 L19.6186061,15.8415411 C20.0721996,16.2951346 20.799661,16.2951346 21.2532545,15.8415411 L22.3572841,14.7375114 C23.2302378,13.8645578 24.3856176,13.3852891 25.6180227,13.3852891 C26.8418695,13.3852891 27.9972493,13.8645578 28.870203,14.7375114 C29.7431566,15.6104651 30.2224253,16.7658449 30.2138669,17.9896917 C30.2138669,19.2220968 29.7345982,20.3774766 28.8616446,21.2504303 Z" id="Shape"></path>
            </g>
        </g>
    </g>
</svg>